<svg width="14" height="16" viewBox="0 0 14 16" fill="none" xmlns="http://www.w3.org/2000/svg">
<path d="M8.33366 1.33301V3.99967C8.33366 4.3533 8.47414 4.69243 8.72418 4.94248C8.97423 5.19253 9.31337 5.33301 9.66699 5.33301H12.3337M5.66699 5.99967H4.33366M9.66699 8.66634H4.33366M9.66699 11.333H4.33366M9.00033 1.33301H3.00033C2.6467 1.33301 2.30756 1.47348 2.05752 1.72353C1.80747 1.97358 1.66699 2.31272 1.66699 2.66634V13.333C1.66699 13.6866 1.80747 14.0258 2.05752 14.2758C2.30756 14.5259 2.6467 14.6663 3.00033 14.6663H11.0003C11.3539 14.6663 11.6931 14.5259 11.9431 14.2758C12.1932 14.0258 12.3337 13.6866 12.3337 13.333V4.66634L9.00033 1.33301Z" stroke="white" stroke-width="1.4" stroke-linecap="round" stroke-linejoin="round"/>
</svg>
